<?xml version="1.0" encoding="UTF-8"?>
<svg xmlns="http://www.w3.org/2000/svg" xmlns:xlink="http://www.w3.org/1999/xlink" viewBox="0 0 512 512" width="512px" height="512px">
<defs>
<linearGradient id="linear0" gradientUnits="userSpaceOnUse" x1="134.1875" y1="16.18372" x2="134.1875" y2="207.506836" >
<stop offset="0" style="stop-color:rgb(10.196079%,42.745098%,100%);stop-opacity:1;"/>
<stop offset="1" style="stop-color:rgb(78.431374%,13.333334%,100%);stop-opacity:1;"/>
</linearGradient>
<linearGradient id="linear1" gradientUnits="userSpaceOnUse" x1="114.500778" y1="16.18372" x2="114.500778" y2="207.506836" >
<stop offset="0" style="stop-color:rgb(10.196079%,42.745098%,100%);stop-opacity:1;"/>
<stop offset="1" style="stop-color:rgb(78.431374%,13.333334%,100%);stop-opacity:1;"/>
</linearGradient>
<linearGradient id="linear2" gradientUnits="userSpaceOnUse" x1="68.428558" y1="91.936089" x2="68.428558" y2="183.487274" >
<stop offset="0" style="stop-color:rgb(54.11765%,70.588237%,100%);stop-opacity:1;"/>
<stop offset="1" style="stop-color:rgb(89.411765%,57.254905%,100%);stop-opacity:1;"/>
</linearGradient>
<linearGradient id="linear3" gradientUnits="userSpaceOnUse" x1="134.1875" y1="16.18372" x2="134.1875" y2="207.506836" gradientTransform="matrix(2.165805,0,0,2.165805,11.264,11.264)">
<stop offset="0" style="stop-color:rgb(10.196079%,42.745098%,100%);stop-opacity:1;"/>
<stop offset="1" style="stop-color:rgb(78.431374%,13.333334%,100%);stop-opacity:1;"/>
</linearGradient>
<linearGradient id="linear4" gradientUnits="userSpaceOnUse" x1="114.500778" y1="16.18372" x2="114.500778" y2="207.506836" gradientTransform="matrix(2.165805,0,0,2.165805,11.264,11.264)">
<stop offset="0" style="stop-color:rgb(10.196079%,42.745098%,100%);stop-opacity:1;"/>
<stop offset="1" style="stop-color:rgb(78.431374%,13.333334%,100%);stop-opacity:1;"/>
</linearGradient>
<linearGradient id="linear5" gradientUnits="userSpaceOnUse" x1="68.428558" y1="91.936089" x2="68.428558" y2="183.487274" gradientTransform="matrix(2.165805,0,0,2.165805,11.264,11.264)">
<stop offset="0" style="stop-color:rgb(54.11765%,70.588237%,100%);stop-opacity:1;"/>
<stop offset="1" style="stop-color:rgb(89.411765%,57.254905%,100%);stop-opacity:1;"/>
</linearGradient>
</defs>
<g id="surface370739182">
<path style="fill-rule:nonzero;fill:url(#linear0);stroke-width:10;stroke-linecap:butt;stroke-linejoin:round;stroke:rgb(80.000001%,80.000001%,80.000001%);stroke-opacity:1;stroke-miterlimit:10;" d="M 148.072842 22.596272 C 140.957633 24.785845 133.669279 29.220901 128.996147 34.496436 C 124.992151 39.037905 121.125229 45.606623 120.250482 52.305199 C 127.464889 50.716226 134.749636 46.3966 139.59411 40.578181 C 142.052419 37.636507 146.923948 30.898251 148.072842 22.596272 M 154.989654 14.124755 C 156.843757 25.693056 151.744975 37.053943 145.021148 45.098007 C 138.015959 53.508202 126.076116 60.031829 114.394187 60.031829 C 114.087575 60.031829 113.78457 60.028222 113.479761 60.0174 C 111.286582 48.9505 116.91923 37.512058 123.70979 29.810679 C 131.200148 21.357198 144.029167 14.82816 154.989654 14.124755 Z M 154.989654 14.124755 " transform="matrix(2.165805,0,0,2.165805,11.264,11.264)"/>
<path style="fill-rule:nonzero;fill:url(#linear1);stroke-width:10;stroke-linecap:butt;stroke-linejoin:round;stroke:rgb(80.000001%,80.000001%,80.000001%);stroke-opacity:1;stroke-miterlimit:10;" d="M 155.96901 74.170263 C 149.191075 74.170263 143.675661 75.854827 137.839206 77.638589 C 132.076698 79.400707 126.115795 81.218738 119.179143 81.218738 L 117.413417 81.218738 C 110.478568 81.218738 104.517665 79.400707 98.762372 77.642196 C 92.920506 75.858434 87.408699 74.17387 80.632567 74.17387 C 68.025392 74.17387 54.554291 82.088074 46.308224 94.330922 C 35.019481 111.05031 35.041124 146.440582 57.301176 179.112827 C 64.322597 189.380731 73.760845 201.185304 84.474239 201.273681 L 84.771833 201.273681 C 89.129335 201.273681 91.993454 200.17168 95.954164 198.647637 C 101.018677 196.697943 107.325872 194.268492 117.678546 194.217991 L 118.246681 194.225206 L 118.843673 194.214384 C 129.264883 194.268492 135.572079 196.694336 140.638396 198.64403 C 144.604516 200.168073 147.465028 201.270074 151.82253 201.270074 L 152.102088 201.270074 C 162.833518 201.181697 172.271766 189.377124 179.298598 179.102005 C 182.541474 174.344104 185.42904 169.285001 187.919814 164.002252 C 172.419661 155.866205 162.436726 139.745613 162.436726 121.828634 C 162.436726 106.743309 169.387807 92.963792 181.05711 84.054 C 173.561341 77.768448 164.599244 74.170263 155.96901 74.170263 M 155.96901 67.107358 C 168.871977 67.107358 182.516223 73.775274 192.336835 85.358004 C 178.829662 91.953775 169.49963 105.781989 169.49963 121.828634 C 169.49963 139.745613 181.118432 154.922921 197.220988 160.312083 C 194.147651 168.009855 190.168905 175.689591 185.129642 183.084358 C 177.053114 194.896145 166.258558 208.21394 152.176036 208.329371 C 152.058802 208.332978 151.939764 208.332978 151.82253 208.332978 C 139.558038 208.332978 135.719974 201.362057 118.879745 201.280895 C 118.868923 201.280895 118.854494 201.280895 118.843673 201.280895 C 118.654295 201.280895 118.484756 201.291717 118.297182 201.291717 C 118.109607 201.291717 117.940068 201.280895 117.748887 201.280895 C 117.738065 201.280895 117.72544 201.280895 117.714618 201.280895 C 100.874389 201.362057 97.038128 208.332978 84.771833 208.332978 C 84.654599 208.332978 84.537365 208.329371 84.418327 208.329371 C 70.335805 208.215744 59.541249 194.896145 51.464721 183.084358 C 28.863788 149.91973 26.484837 111.061132 40.446518 90.382838 C 50.319434 75.717753 65.953053 67.107358 80.625353 67.107358 C 95.573604 67.107358 105.062352 74.155834 117.413417 74.155834 C 117.745279 74.155834 118.297182 74.155834 118.297182 74.155834 C 118.297182 74.155834 118.84728 74.155834 119.179143 74.155834 C 131.532011 74.155834 141.020759 67.107358 155.96901 67.107358 Z M 155.96901 67.107358 " transform="matrix(2.165805,0,0,2.165805,11.264,11.264)"/>
<path style="fill-rule:nonzero;fill:url(#linear2);stroke-width:10;stroke-linecap:butt;stroke-linejoin:round;stroke:rgb(80.000001%,80.000001%,80.000001%);stroke-opacity:1;stroke-miterlimit:10;" d="M 78.929967 183.486561 C 75.822362 180.425849 72.47127 176.275762 68.972282 171.158944 C 58.801773 156.228729 52.968925 138.894313 52.968925 123.59436 C 52.968925 111.171151 58.794558 99.927498 69.378093 91.935739 L 73.632789 97.571994 C 64.861874 104.196624 60.031829 113.438279 60.031829 123.59436 C 60.031829 137.51095 65.41558 153.393467 74.808738 167.180198 C 78.048006 171.91826 81.105111 175.714841 83.888068 178.45812 Z M 78.929967 183.486561 " transform="matrix(2.165805,0,0,2.165805,11.264,11.264)"/>
<path style=" stroke:none;fill-rule:nonzero;fill:url(#linear3);" d="M 331.960938 60.203125 C 329.472656 78.183594 318.921875 92.777344 313.597656 99.148438 C 303.105469 111.75 287.328125 121.105469 271.703125 124.546875 C 273.597656 110.039062 281.972656 95.8125 290.644531 85.976562 C 300.765625 74.550781 316.550781 64.945312 331.960938 60.203125 M 346.941406 41.855469 C 323.203125 43.378906 295.417969 57.519531 279.195312 75.828125 C 264.488281 92.507812 252.289062 117.28125 257.039062 141.25 C 257.699219 141.273438 258.355469 141.28125 259.019531 141.28125 C 284.320312 141.28125 310.179688 127.152344 325.351562 108.9375 C 339.914062 91.515625 350.957031 66.910156 346.941406 41.855469 Z M 346.941406 41.855469 "/>
<path style=" stroke:none;fill-rule:nonzero;fill:url(#linear4);" d="M 349.0625 171.902344 C 367.753906 171.902344 387.164062 179.695312 403.398438 193.308594 C 378.125 212.605469 363.070312 242.449219 363.070312 275.121094 C 363.070312 313.925781 384.691406 348.839844 418.261719 366.460938 C 412.867188 377.902344 406.613281 388.859375 399.589844 399.164062 C 384.371094 421.417969 363.929688 446.984375 340.6875 447.175781 L 340.082031 447.175781 C 330.644531 447.175781 324.449219 444.789062 315.859375 441.488281 C 304.886719 437.265625 291.226562 432.011719 268.65625 431.894531 L 267.363281 431.917969 L 266.132812 431.902344 C 243.710938 432.011719 230.050781 437.273438 219.082031 441.496094 C 210.503906 444.796875 204.300781 447.183594 194.863281 447.183594 L 194.21875 447.183594 C 171.015625 446.992188 150.574219 421.425781 135.367188 399.1875 C 87.15625 328.425781 87.109375 251.777344 111.558594 215.566406 C 129.417969 189.050781 158.59375 171.910156 185.898438 171.910156 C 200.574219 171.910156 212.511719 175.558594 225.164062 179.421875 C 237.628906 183.230469 250.539062 187.167969 265.558594 187.167969 L 269.382812 187.167969 C 284.40625 187.167969 297.316406 183.230469 309.796875 179.414062 C 322.4375 175.550781 334.382812 171.902344 349.0625 171.902344 M 349.0625 156.605469 C 316.6875 156.605469 296.136719 171.871094 269.382812 171.871094 C 268.664062 171.871094 267.472656 171.871094 267.472656 171.871094 C 267.472656 171.871094 266.277344 171.871094 265.558594 171.871094 C 238.808594 171.871094 218.257812 156.605469 185.882812 156.605469 C 154.105469 156.605469 120.246094 175.253906 98.863281 207.015625 C 68.625 251.800781 73.777344 335.960938 122.726562 407.789062 C 140.21875 433.371094 163.597656 462.21875 194.097656 462.464844 C 194.355469 462.464844 194.609375 462.472656 194.863281 462.472656 C 221.429688 462.472656 229.738281 447.375 266.210938 447.199219 C 266.234375 447.199219 266.261719 447.199219 266.285156 447.199219 C 266.699219 447.199219 267.066406 447.222656 267.472656 447.222656 C 267.878906 447.222656 268.246094 447.199219 268.65625 447.199219 C 268.679688 447.199219 268.710938 447.199219 268.734375 447.199219 C 305.207031 447.375 313.519531 462.472656 340.082031 462.472656 C 340.335938 462.472656 340.59375 462.472656 340.847656 462.464844 C 371.347656 462.214844 394.726562 433.371094 412.21875 407.789062 C 423.132812 391.773438 431.75 375.140625 438.40625 358.46875 C 403.53125 346.796875 378.367188 313.925781 378.367188 275.121094 C 378.367188 240.367188 398.574219 210.417969 427.828125 196.132812 C 406.558594 171.046875 377.007812 156.605469 349.0625 156.605469 Z M 349.0625 156.605469 "/>
<path style=" stroke:none;fill-rule:nonzero;fill:url(#linear5);" d="M 182.210938 408.660156 C 175.480469 402.03125 168.222656 393.042969 160.644531 381.960938 C 138.617188 349.625 125.984375 312.082031 125.984375 278.945312 C 125.984375 252.039062 138.601562 227.6875 161.523438 210.378906 L 170.738281 222.585938 C 151.742188 236.933594 141.28125 256.949219 141.28125 278.945312 C 141.28125 309.085938 152.941406 343.484375 173.285156 373.34375 C 180.300781 383.605469 186.921875 391.828125 192.949219 397.769531 Z M 182.210938 408.660156 "/>
</g>
</svg>
