<?xml version="1.0" encoding="UTF-8"?>
<svg xmlns="http://www.w3.org/2000/svg" xmlns:xlink="http://www.w3.org/1999/xlink" viewBox="0 0 128 128" width="128px" height="128px">
<defs>
<linearGradient id="linear0" gradientUnits="userSpaceOnUse" x1="134.1875" y1="16.18372" x2="134.1875" y2="207.506836" >
<stop offset="0" style="stop-color:rgb(10.196079%,42.745098%,100%);stop-opacity:1;"/>
<stop offset="1" style="stop-color:rgb(78.431374%,13.333334%,100%);stop-opacity:1;"/>
</linearGradient>
<linearGradient id="linear1" gradientUnits="userSpaceOnUse" x1="114.500778" y1="16.18372" x2="114.500778" y2="207.506836" >
<stop offset="0" style="stop-color:rgb(10.196079%,42.745098%,100%);stop-opacity:1;"/>
<stop offset="1" style="stop-color:rgb(78.431374%,13.333334%,100%);stop-opacity:1;"/>
</linearGradient>
<linearGradient id="linear2" gradientUnits="userSpaceOnUse" x1="68.428558" y1="91.936089" x2="68.428558" y2="183.487274" >
<stop offset="0" style="stop-color:rgb(54.11765%,70.588237%,100%);stop-opacity:1;"/>
<stop offset="1" style="stop-color:rgb(89.411765%,57.254905%,100%);stop-opacity:1;"/>
</linearGradient>
<linearGradient id="linear3" gradientUnits="userSpaceOnUse" x1="134.1875" y1="16.18372" x2="134.1875" y2="207.506836" gradientTransform="matrix(0.541451,0,0,0.541451,2.816,2.816)">
<stop offset="0" style="stop-color:rgb(10.196079%,42.745098%,100%);stop-opacity:1;"/>
<stop offset="1" style="stop-color:rgb(78.431374%,13.333334%,100%);stop-opacity:1;"/>
</linearGradient>
<linearGradient id="linear4" gradientUnits="userSpaceOnUse" x1="114.500778" y1="16.18372" x2="114.500778" y2="207.506836" gradientTransform="matrix(0.541451,0,0,0.541451,2.816,2.816)">
<stop offset="0" style="stop-color:rgb(10.196079%,42.745098%,100%);stop-opacity:1;"/>
<stop offset="1" style="stop-color:rgb(78.431374%,13.333334%,100%);stop-opacity:1;"/>
</linearGradient>
<linearGradient id="linear5" gradientUnits="userSpaceOnUse" x1="68.428558" y1="91.936089" x2="68.428558" y2="183.487274" gradientTransform="matrix(0.541451,0,0,0.541451,2.816,2.816)">
<stop offset="0" style="stop-color:rgb(54.11765%,70.588237%,100%);stop-opacity:1;"/>
<stop offset="1" style="stop-color:rgb(89.411765%,57.254905%,100%);stop-opacity:1;"/>
</linearGradient>
</defs>
<g id="surface369777933">
<path style="fill-rule:nonzero;fill:url(#linear0);stroke-width:10;stroke-linecap:butt;stroke-linejoin:round;stroke:rgb(80.000001%,80.000001%,80.000001%);stroke-opacity:1;stroke-miterlimit:10;" d="M 148.069235 22.596272 C 140.95583 24.789452 133.669279 29.219098 128.994343 34.500043 C 124.990347 39.037905 121.123425 45.603015 120.250482 52.305199 C 127.464889 50.71803 134.75144 46.3966 139.592307 40.574574 C 142.052419 37.63831 146.922144 30.900054 148.069235 22.596272 M 154.987851 14.126559 C 156.841953 25.691253 151.741368 37.053943 145.024755 45.098007 C 138.012352 53.510005 126.079723 60.031829 114.392384 60.031829 C 114.089379 60.031829 113.786374 60.024614 113.483369 60.0174 C 111.290189 48.9505 116.917426 37.515665 123.713397 29.810679 C 131.201952 21.355394 144.029167 14.826356 154.987851 14.126559 Z M 154.987851 14.126559 " transform="matrix(0.541451,0,0,0.541451,2.816,2.816)"/>
<path style="fill-rule:nonzero;fill:url(#linear1);stroke-width:10;stroke-linecap:butt;stroke-linejoin:round;stroke:rgb(80.000001%,80.000001%,80.000001%);stroke-opacity:1;stroke-miterlimit:10;" d="M 155.96901 74.172066 C 149.194682 74.172066 143.675661 75.853023 137.839206 77.634981 C 132.074895 79.402511 126.115795 81.220542 119.18275 81.220542 L 117.41522 81.220542 C 110.482175 81.220542 104.515861 79.402511 98.758764 77.642196 C 92.922309 75.860237 87.410503 74.172066 80.636175 74.172066 C 68.025392 74.172066 54.556094 82.08627 46.310027 94.329119 C 35.019481 111.052114 35.041124 146.438779 57.304783 179.112827 C 64.324401 189.378928 73.760845 201.188912 84.474239 201.275485 L 84.77003 201.275485 C 89.127531 201.275485 91.991651 200.17168 95.95236 198.649441 C 101.016874 196.694336 107.322265 194.270296 117.682153 194.219795 L 118.244877 194.227009 L 118.843673 194.21258 C 129.268491 194.270296 135.573882 196.694336 140.638396 198.642226 C 144.606319 200.17168 147.463224 201.26827 151.820726 201.26827 L 152.102088 201.26827 C 162.829911 201.181697 172.273569 189.378928 179.300402 179.098398 C 182.53967 174.344104 185.432647 169.286805 187.921618 163.998645 C 172.417858 155.868008 162.440333 139.743809 162.440333 121.830437 C 162.440333 106.745113 169.387807 92.965596 181.060717 84.055803 C 173.557734 77.772055 164.597441 74.172066 155.96901 74.172066 M 155.96901 67.109162 C 168.868369 67.109162 182.518027 73.775274 192.336835 85.354397 C 178.831465 91.955579 169.503237 105.785597 169.503237 121.830437 C 169.503237 139.743809 181.118432 154.922921 197.220988 160.312083 C 194.147651 168.009855 190.165298 175.693198 185.129642 183.087965 C 177.056721 194.897949 166.256754 208.215744 152.174232 208.331174 C 152.058802 208.331174 151.936157 208.331174 151.820726 208.331174 C 139.556235 208.331174 135.71817 201.362057 118.879745 201.282699 C 118.87253 201.282699 118.858102 201.282699 118.843673 201.282699 C 118.656098 201.282699 118.482953 201.289913 118.295378 201.289913 C 118.107803 201.289913 117.941872 201.282699 117.747083 201.282699 C 117.739869 201.282699 117.72544 201.282699 117.711011 201.282699 C 100.872586 201.362057 97.041736 208.331174 84.77003 208.331174 C 84.654599 208.331174 84.539169 208.331174 84.416524 208.331174 C 70.334002 208.215744 59.541249 194.897949 51.461114 183.087965 C 28.865592 149.916123 26.484837 111.059328 40.444715 90.382838 C 50.321237 75.715949 65.954857 67.109162 80.62896 67.109162 C 95.569997 67.109162 105.064156 74.157637 117.41522 74.157637 C 117.747083 74.157637 118.295378 74.157637 118.295378 74.157637 C 118.295378 74.157637 118.850887 74.157637 119.18275 74.157637 C 131.533814 74.157637 141.020759 67.109162 155.96901 67.109162 Z M 155.96901 67.109162 " transform="matrix(0.541451,0,0,0.541451,2.816,2.816)"/>
<path style="fill-rule:nonzero;fill:url(#linear2);stroke-width:10;stroke-linecap:butt;stroke-linejoin:round;stroke:rgb(80.000001%,80.000001%,80.000001%);stroke-opacity:1;stroke-miterlimit:10;" d="M 78.933575 183.484757 C 75.824165 180.425849 72.469466 176.277565 68.970479 171.162551 C 58.80538 156.228729 52.968925 138.892509 52.968925 123.590753 C 52.968925 111.167544 58.798165 99.927498 69.3817 91.933936 L 73.630986 97.568387 C 64.865481 104.198427 60.031829 113.440082 60.031829 123.590753 C 60.031829 137.507343 65.413776 153.393467 74.806934 167.180198 C 78.046203 171.920063 81.105111 175.714841 83.889872 178.456316 Z M 78.933575 183.484757 " transform="matrix(0.541451,0,0,0.541451,2.816,2.816)"/>
<path style=" stroke:none;fill-rule:nonzero;fill:url(#linear3);" d="M 82.988281 15.050781 C 82.367188 19.546875 79.730469 23.195312 78.398438 24.785156 C 75.777344 27.9375 71.832031 30.277344 67.925781 31.136719 C 68.398438 27.507812 70.492188 23.953125 72.660156 21.496094 C 75.191406 18.636719 79.136719 16.234375 82.988281 15.050781 M 86.734375 10.464844 C 80.800781 10.84375 73.855469 14.378906 69.800781 18.957031 C 66.121094 23.128906 63.074219 29.320312 64.261719 35.3125 C 64.425781 35.316406 64.589844 35.320312 64.753906 35.320312 C 71.082031 35.320312 77.542969 31.789062 81.339844 27.234375 C 84.976562 22.878906 87.738281 16.726562 86.734375 10.464844 Z M 86.734375 10.464844 "/>
<path style=" stroke:none;fill-rule:nonzero;fill:url(#linear4);" d="M 87.265625 42.976562 C 91.9375 42.976562 96.789062 44.925781 100.851562 48.328125 C 94.53125 53.152344 90.769531 60.613281 90.769531 68.78125 C 90.769531 78.480469 96.171875 87.210938 104.566406 91.613281 C 103.21875 94.476562 101.652344 97.214844 99.898438 99.789062 C 96.09375 105.355469 90.980469 111.746094 85.171875 111.792969 L 85.019531 111.792969 C 82.660156 111.792969 81.113281 111.199219 78.964844 110.371094 C 76.222656 109.316406 72.808594 108.003906 67.164062 107.972656 L 66.839844 107.980469 L 66.535156 107.976562 C 60.925781 108.003906 57.511719 109.316406 54.769531 110.375 C 52.625 111.199219 51.074219 111.796875 48.714844 111.796875 L 48.554688 111.796875 C 42.753906 111.75 37.644531 105.355469 33.84375 99.796875 C 21.789062 82.105469 21.777344 62.945312 27.890625 53.890625 C 32.355469 47.261719 39.648438 42.976562 46.476562 42.976562 C 50.144531 42.976562 53.128906 43.890625 56.289062 44.855469 C 59.40625 45.808594 62.636719 46.792969 66.390625 46.792969 L 67.347656 46.792969 C 71.101562 46.792969 74.328125 45.808594 77.449219 44.851562 C 80.609375 43.886719 83.597656 42.976562 87.265625 42.976562 M 87.265625 39.152344 C 79.171875 39.152344 74.035156 42.96875 67.347656 42.96875 C 67.167969 42.96875 66.867188 42.96875 66.867188 42.96875 C 66.867188 42.96875 66.570312 42.96875 66.390625 42.96875 C 59.703125 42.96875 54.5625 39.152344 46.472656 39.152344 C 38.527344 39.152344 30.0625 43.8125 24.714844 51.753906 C 17.15625 62.949219 18.445312 83.988281 30.679688 101.949219 C 35.054688 108.34375 40.898438 115.554688 48.523438 115.617188 C 48.589844 115.617188 48.652344 115.617188 48.714844 115.617188 C 55.359375 115.617188 57.433594 111.84375 66.550781 111.800781 C 66.558594 111.800781 66.566406 111.800781 66.570312 111.800781 C 66.675781 111.800781 66.765625 111.804688 66.867188 111.804688 C 66.96875 111.804688 67.0625 111.800781 67.164062 111.800781 C 67.171875 111.800781 67.179688 111.800781 67.183594 111.800781 C 76.300781 111.84375 78.378906 115.617188 85.019531 115.617188 C 85.082031 115.617188 85.148438 115.617188 85.210938 115.617188 C 92.835938 115.554688 98.683594 108.34375 103.054688 101.949219 C 105.78125 97.945312 107.9375 93.785156 109.601562 89.617188 C 100.882812 86.699219 94.59375 78.480469 94.59375 68.78125 C 94.59375 60.09375 99.644531 52.605469 106.957031 49.03125 C 101.640625 42.761719 94.25 39.152344 87.265625 39.152344 Z M 87.265625 39.152344 "/>
<path style=" stroke:none;fill-rule:nonzero;fill:url(#linear5);" d="M 45.554688 102.164062 C 43.871094 100.507812 42.054688 98.261719 40.160156 95.492188 C 34.65625 87.40625 31.496094 78.019531 31.496094 69.734375 C 31.496094 63.007812 34.652344 56.921875 40.382812 52.59375 L 42.683594 55.644531 C 37.9375 59.234375 35.320312 64.238281 35.320312 69.734375 C 35.320312 77.269531 38.234375 85.871094 43.320312 93.335938 C 45.074219 95.902344 46.730469 97.957031 48.238281 99.441406 Z M 45.554688 102.164062 "/>
</g>
</svg>
