<?xml version="1.0" encoding="UTF-8"?>
<svg xmlns="http://www.w3.org/2000/svg" xmlns:xlink="http://www.w3.org/1999/xlink" viewBox="0 0 256 256" width="256px" height="256px">
<defs>
<linearGradient id="linear0" gradientUnits="userSpaceOnUse" x1="134.1875" y1="16.18372" x2="134.1875" y2="207.506836" >
<stop offset="0" style="stop-color:rgb(10.196079%,42.745098%,100%);stop-opacity:1;"/>
<stop offset="1" style="stop-color:rgb(78.431374%,13.333334%,100%);stop-opacity:1;"/>
</linearGradient>
<linearGradient id="linear1" gradientUnits="userSpaceOnUse" x1="114.500778" y1="16.18372" x2="114.500778" y2="207.506836" >
<stop offset="0" style="stop-color:rgb(10.196079%,42.745098%,100%);stop-opacity:1;"/>
<stop offset="1" style="stop-color:rgb(78.431374%,13.333334%,100%);stop-opacity:1;"/>
</linearGradient>
<linearGradient id="linear2" gradientUnits="userSpaceOnUse" x1="68.428558" y1="91.936089" x2="68.428558" y2="183.487274" >
<stop offset="0" style="stop-color:rgb(54.11765%,70.588237%,100%);stop-opacity:1;"/>
<stop offset="1" style="stop-color:rgb(89.411765%,57.254905%,100%);stop-opacity:1;"/>
</linearGradient>
<linearGradient id="linear3" gradientUnits="userSpaceOnUse" x1="134.1875" y1="16.18372" x2="134.1875" y2="207.506836" gradientTransform="matrix(1.082903,0,0,1.082903,5.632,5.632)">
<stop offset="0" style="stop-color:rgb(10.196079%,42.745098%,100%);stop-opacity:1;"/>
<stop offset="1" style="stop-color:rgb(78.431374%,13.333334%,100%);stop-opacity:1;"/>
</linearGradient>
<linearGradient id="linear4" gradientUnits="userSpaceOnUse" x1="114.500778" y1="16.18372" x2="114.500778" y2="207.506836" gradientTransform="matrix(1.082903,0,0,1.082903,5.632,5.632)">
<stop offset="0" style="stop-color:rgb(10.196079%,42.745098%,100%);stop-opacity:1;"/>
<stop offset="1" style="stop-color:rgb(78.431374%,13.333334%,100%);stop-opacity:1;"/>
</linearGradient>
<linearGradient id="linear5" gradientUnits="userSpaceOnUse" x1="68.428558" y1="91.936089" x2="68.428558" y2="183.487274" gradientTransform="matrix(1.082903,0,0,1.082903,5.632,5.632)">
<stop offset="0" style="stop-color:rgb(54.11765%,70.588237%,100%);stop-opacity:1;"/>
<stop offset="1" style="stop-color:rgb(89.411765%,57.254905%,100%);stop-opacity:1;"/>
</linearGradient>
</defs>
<g id="surface370739247">
<path style="fill-rule:nonzero;fill:url(#linear0);stroke-width:10;stroke-linecap:butt;stroke-linejoin:round;stroke:rgb(80.000001%,80.000001%,80.000001%);stroke-opacity:1;stroke-miterlimit:10;" d="M 148.072842 22.596272 C 140.95583 24.785845 133.669279 29.222705 128.99795 34.496436 C 124.990347 39.037905 121.127033 45.606623 120.250482 52.305199 C 127.464889 50.714423 134.747833 46.3966 139.592307 40.578181 C 142.052419 37.634703 146.925751 30.900054 148.072842 22.596272 M 154.991458 14.126559 C 156.84556 25.69486 151.744975 37.053943 145.021148 45.098007 C 138.015959 53.510005 126.076116 60.031829 114.395991 60.031829 C 114.089379 60.031829 113.782767 60.028222 113.479761 60.0174 C 111.286582 48.9505 116.921033 37.512058 123.70979 29.810679 C 131.198344 21.355394 144.029167 14.826356 154.991458 14.126559 Z M 154.991458 14.126559 " transform="matrix(1.082903,0,0,1.082903,5.632,5.632)"/>
<path style="fill-rule:nonzero;fill:url(#linear1);stroke-width:10;stroke-linecap:butt;stroke-linejoin:round;stroke:rgb(80.000001%,80.000001%,80.000001%);stroke-opacity:1;stroke-miterlimit:10;" d="M 155.96901 74.172066 C 149.191075 74.172066 143.675661 75.853023 137.839206 77.638589 C 132.074895 79.398904 126.115795 81.220542 119.179143 81.220542 L 117.41522 81.220542 C 110.478568 81.220542 104.519468 79.398904 98.762372 77.642196 C 92.922309 75.85663 87.410503 74.175673 80.632567 74.175673 C 68.025392 74.175673 54.552487 82.08627 46.310027 94.329119 C 35.019481 111.052114 35.041124 146.442386 57.301176 179.112827 C 64.320794 189.382535 73.760845 201.185304 84.474239 201.275485 L 84.77003 201.275485 C 89.127531 201.275485 91.991651 200.17168 95.955967 198.645833 C 101.016874 196.697943 107.325872 194.266688 117.678546 194.219795 L 118.248484 194.227009 L 118.843673 194.216188 C 129.264883 194.266688 135.570275 196.694336 140.638396 198.642226 C 144.606319 200.168073 147.463224 201.271877 151.824333 201.271877 L 152.102088 201.271877 C 162.833518 201.181697 172.273569 189.378928 179.300402 179.102005 C 182.53967 174.344104 185.42904 169.283198 187.91801 164.002252 C 172.421465 155.864401 162.436726 139.747416 162.436726 121.82683 C 162.436726 106.741505 169.387807 92.961989 181.05711 84.055803 C 173.561341 77.768448 164.597441 74.172066 155.96901 74.172066 M 155.96901 67.109162 C 168.871977 67.109162 182.51442 73.775274 192.336835 85.358004 C 178.827858 91.951972 169.49963 105.781989 169.49963 121.82683 C 169.49963 139.747416 181.118432 154.922921 197.220988 160.312083 C 194.147651 168.009855 190.168905 175.689591 185.129642 183.084358 C 177.053114 194.897949 166.256754 208.212137 152.174232 208.331174 C 152.058802 208.334782 151.939764 208.334782 151.824333 208.334782 C 139.559842 208.334782 135.721777 201.362057 118.879745 201.282699 C 118.868923 201.282699 118.854494 201.282699 118.843673 201.282699 C 118.652491 201.282699 118.482953 201.293521 118.295378 201.293521 C 118.111411 201.293521 117.941872 201.282699 117.75069 201.282699 C 117.739869 201.282699 117.72544 201.282699 117.714618 201.282699 C 100.872586 201.362057 97.038128 208.334782 84.77003 208.334782 C 84.654599 208.334782 84.539169 208.331174 84.416524 208.331174 C 70.334002 208.215744 59.541249 194.897949 51.464721 183.084358 C 28.865592 149.91973 26.484837 111.062935 40.448322 90.382838 C 50.321237 75.715949 65.954857 67.109162 80.625353 67.109162 C 95.573604 67.109162 105.060549 74.157637 117.41522 74.157637 C 117.747083 74.157637 118.295378 74.157637 118.295378 74.157637 C 118.295378 74.157637 118.84728 74.157637 119.179143 74.157637 C 131.530207 74.157637 141.020759 67.109162 155.96901 67.109162 Z M 155.96901 67.109162 " transform="matrix(1.082903,0,0,1.082903,5.632,5.632)"/>
<path style="fill-rule:nonzero;fill:url(#linear2);stroke-width:10;stroke-linecap:butt;stroke-linejoin:round;stroke:rgb(80.000001%,80.000001%,80.000001%);stroke-opacity:1;stroke-miterlimit:10;" d="M 78.929967 183.488365 C 75.824165 180.425849 72.473073 176.277565 68.974086 171.158944 C 58.801773 156.228729 52.968925 138.896116 52.968925 123.59436 C 52.968925 111.171151 58.794558 99.927498 69.378093 91.937543 L 73.634593 97.571994 C 64.861874 104.19482 60.031829 113.436475 60.031829 123.59436 C 60.031829 137.51095 65.417384 153.393467 74.810541 167.180198 C 78.046203 171.920063 81.105111 175.714841 83.889872 178.459923 Z M 78.929967 183.488365 " transform="matrix(1.082903,0,0,1.082903,5.632,5.632)"/>
<path style=" stroke:none;fill-rule:nonzero;fill:url(#linear3);" d="M 165.980469 30.101562 C 164.738281 39.09375 159.460938 46.386719 156.796875 49.574219 C 151.550781 55.875 143.664062 60.550781 135.851562 62.273438 C 136.800781 55.019531 140.984375 47.90625 145.324219 42.988281 C 150.382812 37.277344 158.273438 32.472656 165.980469 30.101562 M 173.472656 20.929688 C 161.601562 21.6875 147.707031 28.757812 139.597656 37.914062 C 132.246094 46.253906 126.144531 58.640625 128.519531 70.625 C 128.847656 70.636719 129.179688 70.640625 129.511719 70.640625 C 142.160156 70.640625 155.089844 63.578125 162.675781 54.46875 C 169.957031 45.757812 175.480469 33.457031 173.472656 20.929688 Z M 173.472656 20.929688 "/>
<path style=" stroke:none;fill-rule:nonzero;fill:url(#linear4);" d="M 174.53125 85.953125 C 183.875 85.953125 193.582031 89.847656 201.699219 96.65625 C 189.0625 106.300781 181.535156 121.222656 181.535156 137.558594 C 181.535156 156.964844 192.347656 174.417969 209.128906 183.230469 C 206.433594 188.949219 203.304688 194.429688 199.796875 199.582031 C 192.1875 210.710938 181.964844 223.492188 170.34375 223.589844 L 170.042969 223.589844 C 165.320312 223.589844 162.226562 222.394531 157.929688 220.742188 C 152.441406 218.632812 145.613281 216.003906 134.328125 215.949219 L 133.683594 215.960938 L 133.066406 215.953125 C 121.855469 216.003906 115.023438 218.636719 109.542969 220.746094 C 105.25 222.398438 102.148438 223.59375 97.429688 223.59375 L 97.109375 223.59375 C 85.507812 223.496094 75.285156 210.714844 67.683594 199.59375 C 43.578125 164.214844 43.554688 125.890625 55.78125 107.78125 C 64.707031 94.523438 79.296875 85.957031 92.949219 85.957031 C 100.289062 85.957031 106.257812 87.777344 112.582031 89.710938 C 118.816406 91.613281 125.269531 93.585938 132.78125 93.585938 L 134.691406 93.585938 C 142.203125 93.585938 148.65625 91.613281 154.898438 89.707031 C 161.21875 87.773438 167.191406 85.953125 174.53125 85.953125 M 174.53125 78.304688 C 158.34375 78.304688 148.066406 85.9375 134.691406 85.9375 C 134.332031 85.9375 133.734375 85.9375 133.734375 85.9375 C 133.734375 85.9375 133.140625 85.9375 132.78125 85.9375 C 119.402344 85.9375 109.128906 78.304688 92.941406 78.304688 C 77.054688 78.304688 60.125 87.625 49.433594 103.507812 C 34.3125 125.902344 36.890625 167.980469 61.363281 203.894531 C 70.109375 216.6875 81.796875 231.109375 97.046875 231.234375 C 97.179688 231.234375 97.304688 231.238281 97.429688 231.238281 C 110.714844 231.238281 114.867188 223.6875 133.105469 223.601562 C 133.117188 223.601562 133.132812 223.601562 133.144531 223.601562 C 133.351562 223.601562 133.535156 223.613281 133.734375 223.613281 C 133.9375 223.613281 134.121094 223.601562 134.328125 223.601562 C 134.339844 223.601562 134.355469 223.601562 134.367188 223.601562 C 152.605469 223.6875 156.761719 231.238281 170.042969 231.238281 C 170.167969 231.238281 170.296875 231.238281 170.421875 231.234375 C 185.671875 231.105469 197.363281 216.6875 206.109375 203.894531 C 211.566406 195.886719 215.875 187.570312 219.203125 179.234375 C 201.765625 173.398438 189.183594 156.964844 189.183594 137.558594 C 189.183594 120.183594 199.285156 105.207031 213.914062 98.066406 C 203.277344 85.523438 188.503906 78.304688 174.53125 78.304688 Z M 174.53125 78.304688 "/>
<path style=" stroke:none;fill-rule:nonzero;fill:url(#linear5);" d="M 91.105469 204.332031 C 87.742188 201.015625 84.113281 196.523438 80.324219 190.980469 C 69.308594 174.8125 62.992188 156.042969 62.992188 139.472656 C 62.992188 126.019531 69.300781 113.84375 80.761719 105.191406 L 85.371094 111.292969 C 75.871094 118.464844 70.640625 128.472656 70.640625 139.472656 C 70.640625 154.542969 76.472656 171.742188 86.644531 186.671875 C 90.148438 191.804688 93.460938 195.914062 96.476562 198.886719 Z M 91.105469 204.332031 "/>
</g>
</svg>
