<?xml version="1.0" encoding="UTF-8"?>
<svg xmlns="http://www.w3.org/2000/svg" xmlns:xlink="http://www.w3.org/1999/xlink" viewBox="0 0 64 64" width="64px" height="64px">
<defs>
<linearGradient id="linear0" gradientUnits="userSpaceOnUse" x1="134.1875" y1="16.18372" x2="134.1875" y2="207.506836" >
<stop offset="0" style="stop-color:rgb(10.196079%,42.745098%,100%);stop-opacity:1;"/>
<stop offset="1" style="stop-color:rgb(78.431374%,13.333334%,100%);stop-opacity:1;"/>
</linearGradient>
<linearGradient id="linear1" gradientUnits="userSpaceOnUse" x1="114.500778" y1="16.18372" x2="114.500778" y2="207.506836" >
<stop offset="0" style="stop-color:rgb(10.196079%,42.745098%,100%);stop-opacity:1;"/>
<stop offset="1" style="stop-color:rgb(78.431374%,13.333334%,100%);stop-opacity:1;"/>
</linearGradient>
<linearGradient id="linear2" gradientUnits="userSpaceOnUse" x1="68.428558" y1="91.936089" x2="68.428558" y2="183.487274" >
<stop offset="0" style="stop-color:rgb(54.11765%,70.588237%,100%);stop-opacity:1;"/>
<stop offset="1" style="stop-color:rgb(89.411765%,57.254905%,100%);stop-opacity:1;"/>
</linearGradient>
<linearGradient id="linear3" gradientUnits="userSpaceOnUse" x1="134.1875" y1="16.18372" x2="134.1875" y2="207.506836" gradientTransform="matrix(0.270726,0,0,0.270726,1.408,1.408)">
<stop offset="0" style="stop-color:rgb(10.196079%,42.745098%,100%);stop-opacity:1;"/>
<stop offset="1" style="stop-color:rgb(78.431374%,13.333334%,100%);stop-opacity:1;"/>
</linearGradient>
<linearGradient id="linear4" gradientUnits="userSpaceOnUse" x1="114.500778" y1="16.18372" x2="114.500778" y2="207.506836" gradientTransform="matrix(0.270726,0,0,0.270726,1.408,1.408)">
<stop offset="0" style="stop-color:rgb(10.196079%,42.745098%,100%);stop-opacity:1;"/>
<stop offset="1" style="stop-color:rgb(78.431374%,13.333334%,100%);stop-opacity:1;"/>
</linearGradient>
<linearGradient id="linear5" gradientUnits="userSpaceOnUse" x1="68.428558" y1="91.936089" x2="68.428558" y2="183.487274" gradientTransform="matrix(0.270726,0,0,0.270726,1.408,1.408)">
<stop offset="0" style="stop-color:rgb(54.11765%,70.588237%,100%);stop-opacity:1;"/>
<stop offset="1" style="stop-color:rgb(89.411765%,57.254905%,100%);stop-opacity:1;"/>
</linearGradient>
</defs>
<g id="surface65242636">
<path style="fill-rule:nonzero;fill:url(#linear0);stroke-width:10;stroke-linecap:butt;stroke-linejoin:round;stroke:rgb(80.000001%,80.000001%,80.000001%);stroke-opacity:1;stroke-miterlimit:10;" d="M 148.076449 22.603487 C 140.963044 24.782237 133.662064 29.226312 129.001558 34.492829 C 124.990347 39.037905 121.123425 45.603015 120.243268 52.297985 C 127.457675 50.710815 134.744225 46.3966 139.592307 40.581788 C 142.045205 37.63831 146.922144 30.900054 148.076449 22.603487 M 154.987851 14.119344 C 156.849168 25.691253 151.741368 37.046729 145.017541 45.098007 C 138.019566 53.510005 126.072508 60.031829 114.399598 60.031829 C 114.082164 60.031829 113.779159 60.031829 113.476154 60.0174 C 111.282975 48.9505 116.924641 37.508451 123.706183 29.817893 C 131.194737 21.362609 144.021952 14.826356 154.987851 14.119344 Z M 154.987851 14.119344 " transform="matrix(0.270726,0,0,0.270726,1.408,1.408)"/>
<path style="fill-rule:nonzero;fill:url(#linear1);stroke-width:10;stroke-linecap:butt;stroke-linejoin:round;stroke:rgb(80.000001%,80.000001%,80.000001%);stroke-opacity:1;stroke-miterlimit:10;" d="M 155.96901 74.172066 C 149.187468 74.172066 143.675661 75.860237 137.831991 77.634981 C 132.074895 79.395297 126.115795 81.213327 119.175536 81.213327 L 117.41522 81.213327 C 110.474961 81.213327 104.515861 79.395297 98.758764 77.634981 C 92.915095 75.860237 87.403288 74.172066 80.636175 74.172066 C 68.025392 74.172066 54.54888 82.093485 46.310027 94.329119 C 35.012266 111.052114 35.041124 146.445993 57.304783 179.112827 C 64.317187 189.386142 73.753631 201.188912 84.474239 201.275485 L 84.777244 201.275485 C 89.134746 201.275485 91.991651 200.178895 95.959575 198.649441 C 101.024088 196.701551 107.32948 194.263081 117.674939 194.219795 L 118.843673 194.219795 C 129.261276 194.263081 135.566668 196.687122 140.64561 198.649441 C 144.599105 200.164466 147.470439 201.275485 151.827941 201.275485 L 152.102088 201.275485 C 162.837125 201.188912 172.273569 189.371713 179.300402 179.098398 C 182.546885 174.351319 185.432647 169.286805 187.914403 164.005859 C 172.417858 155.868008 162.433119 139.751024 162.433119 121.830437 C 162.433119 106.737898 169.387807 92.958381 181.060717 84.055803 C 173.557734 77.764841 164.597441 74.172066 155.96901 74.172066 M 155.96901 67.101948 C 168.868369 67.101948 182.518027 73.768059 192.32962 85.354397 C 178.824251 91.948364 169.503237 105.785597 169.503237 121.830437 C 169.503237 139.751024 181.118432 154.930135 197.220988 160.312083 C 194.147651 168.002641 190.165298 175.693198 185.129642 183.080751 C 177.049507 194.897949 166.256754 208.215744 152.174232 208.331174 C 152.058802 208.331174 151.943371 208.331174 151.827941 208.331174 C 139.563449 208.331174 135.725385 201.362057 118.87253 201.275485 C 118.87253 201.275485 118.858102 201.275485 118.843673 201.275485 C 118.656098 201.275485 118.482953 201.289913 118.295378 201.289913 C 118.107803 201.289913 117.934658 201.275485 117.747083 201.275485 C 117.732654 201.275485 117.718225 201.275485 117.718225 201.275485 C 100.8798 201.362057 97.041736 208.331174 84.777244 208.331174 C 84.661814 208.331174 84.531954 208.331174 84.416524 208.331174 C 70.334002 208.215744 59.541249 194.897949 51.461114 183.080751 C 28.865592 149.923337 26.484837 111.066542 40.451929 90.375624 C 50.321237 75.715949 65.947642 67.101948 80.621746 67.101948 C 95.569997 67.101948 105.064156 74.157637 117.41522 74.157637 C 117.747083 74.157637 118.295378 74.157637 118.295378 74.157637 C 118.295378 74.157637 118.843673 74.157637 119.175536 74.157637 C 131.5266 74.157637 141.020759 67.101948 155.96901 67.101948 Z M 155.96901 67.101948 " transform="matrix(0.270726,0,0,0.270726,1.408,1.408)"/>
<path style="fill-rule:nonzero;fill:url(#linear2);stroke-width:10;stroke-linecap:butt;stroke-linejoin:round;stroke:rgb(80.000001%,80.000001%,80.000001%);stroke-opacity:1;stroke-miterlimit:10;" d="M 78.933575 183.484757 C 75.816951 180.425849 72.469466 176.270351 68.977693 171.162551 C 58.80538 156.228729 52.96171 138.899724 52.96171 123.590753 C 52.96171 111.167544 58.790951 99.927498 69.3817 91.933936 L 73.6382 97.575602 C 64.865481 104.198427 60.031829 113.432868 60.031829 123.590753 C 60.031829 137.514558 65.413776 153.400681 74.806934 167.180198 C 78.053417 171.912849 81.112325 175.722056 83.882658 178.46353 Z M 78.933575 183.484757 " transform="matrix(0.270726,0,0,0.270726,1.408,1.408)"/>
<path style=" stroke:none;fill-rule:nonzero;fill:url(#linear3);" d="M 41.496094 7.527344 C 41.183594 9.773438 39.863281 11.597656 39.199219 12.394531 C 37.886719 13.96875 35.914062 15.136719 33.960938 15.566406 C 34.199219 13.753906 35.246094 11.976562 36.332031 10.746094 C 37.59375 9.320312 39.570312 8.117188 41.496094 7.527344 M 43.367188 5.230469 C 40.398438 5.421875 36.925781 7.191406 34.898438 9.480469 C 33.0625 11.5625 31.535156 14.660156 32.128906 17.65625 C 32.210938 17.660156 32.292969 17.660156 32.378906 17.660156 C 35.539062 17.660156 38.773438 15.894531 40.667969 13.617188 C 42.488281 11.4375 43.871094 8.363281 43.367188 5.230469 Z M 43.367188 5.230469 "/>
<path style=" stroke:none;fill-rule:nonzero;fill:url(#linear4);" d="M 43.632812 21.488281 C 45.96875 21.488281 48.394531 22.460938 50.425781 24.164062 C 47.265625 26.574219 45.382812 30.304688 45.382812 34.390625 C 45.382812 39.242188 48.085938 43.605469 52.28125 45.808594 C 51.609375 47.238281 50.828125 48.609375 49.949219 49.894531 C 48.046875 52.675781 45.492188 55.875 42.585938 55.898438 L 42.511719 55.898438 C 41.332031 55.898438 40.554688 55.597656 39.484375 55.1875 C 38.109375 54.65625 36.402344 54 33.582031 53.988281 L 33.265625 53.988281 C 30.464844 54 28.757812 54.660156 27.386719 55.1875 C 26.3125 55.601562 25.539062 55.898438 24.359375 55.898438 L 24.277344 55.898438 C 21.375 55.875 18.820312 52.679688 16.921875 49.898438 C 10.894531 41.054688 10.886719 31.472656 13.945312 26.945312 C 16.175781 23.632812 19.824219 21.488281 23.238281 21.488281 C 25.070312 21.488281 26.5625 21.945312 28.144531 22.425781 C 29.703125 22.902344 31.316406 23.394531 33.195312 23.394531 L 33.671875 23.394531 C 35.550781 23.394531 37.164062 22.902344 38.722656 22.425781 C 40.304688 21.945312 41.796875 21.488281 43.632812 21.488281 M 43.632812 19.574219 C 39.585938 19.574219 37.015625 21.484375 33.671875 21.484375 C 33.582031 21.484375 33.433594 21.484375 33.433594 21.484375 C 33.433594 21.484375 33.285156 21.484375 33.195312 21.484375 C 29.851562 21.484375 27.28125 19.574219 23.234375 19.574219 C 19.261719 19.574219 15.03125 21.90625 12.359375 25.875 C 8.578125 31.476562 9.222656 41.996094 15.339844 50.972656 C 17.527344 54.171875 20.449219 57.777344 24.261719 57.808594 C 24.292969 57.808594 24.328125 57.808594 24.359375 57.808594 C 27.679688 57.808594 28.71875 55.921875 33.277344 55.898438 C 33.277344 55.898438 33.28125 55.898438 33.285156 55.898438 C 33.335938 55.898438 33.382812 55.902344 33.433594 55.902344 C 33.484375 55.902344 33.53125 55.898438 33.582031 55.898438 C 33.585938 55.898438 33.589844 55.898438 33.589844 55.898438 C 38.152344 55.921875 39.191406 57.808594 42.511719 57.808594 C 42.542969 57.808594 42.574219 57.808594 42.605469 57.808594 C 46.417969 57.777344 49.339844 54.171875 51.527344 50.972656 C 52.890625 48.972656 53.96875 46.890625 54.800781 44.808594 C 50.441406 43.351562 47.296875 39.242188 47.296875 34.390625 C 47.296875 30.046875 49.820312 26.300781 53.476562 24.515625 C 50.820312 21.378906 47.125 19.574219 43.632812 19.574219 Z M 43.632812 19.574219 "/>
<path style=" stroke:none;fill-rule:nonzero;fill:url(#linear5);" d="M 22.777344 51.082031 C 21.933594 50.253906 21.027344 49.128906 20.082031 47.746094 C 17.328125 43.703125 15.746094 39.011719 15.746094 34.867188 C 15.746094 31.503906 17.324219 28.460938 20.191406 26.296875 L 21.34375 27.824219 C 18.96875 29.617188 17.660156 32.117188 17.660156 34.867188 C 17.660156 38.636719 19.117188 42.9375 21.660156 46.667969 C 22.539062 47.949219 23.367188 48.980469 24.117188 49.722656 Z M 22.777344 51.082031 "/>
</g>
</svg>
