<?xml version="1.0" encoding="UTF-8"?>
<svg xmlns="http://www.w3.org/2000/svg" xmlns:xlink="http://www.w3.org/1999/xlink" viewBox="0 0 96 96" width="96px" height="96px">
<defs>
<linearGradient id="linear0" gradientUnits="userSpaceOnUse" x1="134.1875" y1="16.18372" x2="134.1875" y2="207.506836" gradientTransform="matrix(1,0,0,1,-0.000000000000000888,-0.000000000000000888)">
<stop offset="0" style="stop-color:rgb(10.196079%,42.745098%,100%);stop-opacity:1;"/>
<stop offset="1" style="stop-color:rgb(78.431374%,13.333334%,100%);stop-opacity:1;"/>
</linearGradient>
<linearGradient id="linear1" gradientUnits="userSpaceOnUse" x1="114.500778" y1="16.18372" x2="114.500778" y2="207.506836" gradientTransform="matrix(1,0,0,1,-0.000000000000000888,-0.000000000000000888)">
<stop offset="0" style="stop-color:rgb(10.196079%,42.745098%,100%);stop-opacity:1;"/>
<stop offset="1" style="stop-color:rgb(78.431374%,13.333334%,100%);stop-opacity:1;"/>
</linearGradient>
<linearGradient id="linear2" gradientUnits="userSpaceOnUse" x1="68.428558" y1="91.936089" x2="68.428558" y2="183.487274" gradientTransform="matrix(1,0,0,1,-0.000000000000000888,-0.000000000000000888)">
<stop offset="0" style="stop-color:rgb(54.11765%,70.588237%,100%);stop-opacity:1;"/>
<stop offset="1" style="stop-color:rgb(89.411765%,57.254905%,100%);stop-opacity:1;"/>
</linearGradient>
<linearGradient id="linear3" gradientUnits="userSpaceOnUse" x1="134.1875" y1="16.18372" x2="134.1875" y2="207.506836" gradientTransform="matrix(0.406088,0,0,0.406088,2.112,2.112)">
<stop offset="0" style="stop-color:rgb(10.196079%,42.745098%,100%);stop-opacity:1;"/>
<stop offset="1" style="stop-color:rgb(78.431374%,13.333334%,100%);stop-opacity:1;"/>
</linearGradient>
<linearGradient id="linear4" gradientUnits="userSpaceOnUse" x1="114.500778" y1="16.18372" x2="114.500778" y2="207.506836" gradientTransform="matrix(0.406088,0,0,0.406088,2.112,2.112)">
<stop offset="0" style="stop-color:rgb(10.196079%,42.745098%,100%);stop-opacity:1;"/>
<stop offset="1" style="stop-color:rgb(78.431374%,13.333334%,100%);stop-opacity:1;"/>
</linearGradient>
<linearGradient id="linear5" gradientUnits="userSpaceOnUse" x1="68.428558" y1="91.936089" x2="68.428558" y2="183.487274" gradientTransform="matrix(0.406088,0,0,0.406088,2.112,2.112)">
<stop offset="0" style="stop-color:rgb(54.11765%,70.588237%,100%);stop-opacity:1;"/>
<stop offset="1" style="stop-color:rgb(89.411765%,57.254905%,100%);stop-opacity:1;"/>
</linearGradient>
</defs>
<g id="surface370739156">
<path style="fill-rule:nonzero;fill:url(#linear0);stroke-width:10;stroke-linecap:butt;stroke-linejoin:round;stroke:rgb(80.000001%,80.000001%,80.000001%);stroke-opacity:1;stroke-miterlimit:10;" d="M 148.071639 22.598677 C 140.953425 24.782237 133.671684 29.216693 128.996748 34.497639 C 124.995157 39.037905 121.128235 45.607825 120.252887 52.302794 C 127.467294 50.715625 134.749035 46.3966 139.597116 40.576979 C 142.050015 37.633501 146.926954 30.900054 148.071639 22.598677 M 154.987851 14.124154 C 156.844358 25.696062 151.746177 37.056348 145.02235 45.098007 C 138.019566 53.505196 126.072508 60.027019 114.394789 60.027019 C 114.086974 60.027019 113.779159 60.027019 113.480964 60.0174 C 111.287784 48.94569 116.915021 37.508451 123.706183 29.813084 C 131.199547 21.357799 144.031572 14.826356 154.987851 14.124154 Z M 154.987851 14.124154 " transform="matrix(0.406088,0,0,0.406088,2.112,2.112)"/>
<path style="fill-rule:nonzero;fill:url(#linear1);stroke-width:10;stroke-linecap:butt;stroke-linejoin:round;stroke:rgb(80.000001%,80.000001%,80.000001%);stroke-opacity:1;stroke-miterlimit:10;" d="M 155.96901 74.167257 C 149.187468 74.167257 143.675661 75.850618 137.836801 77.639791 C 132.074895 79.400106 126.110985 81.218137 119.175536 81.218137 L 117.41522 81.218137 C 110.479771 81.218137 104.515861 79.400106 98.763574 77.639791 C 92.924714 75.860237 87.412907 74.176876 80.631365 74.176876 C 68.030201 74.176876 54.553689 82.083866 46.310027 94.329119 C 35.017076 111.047304 35.036314 146.436374 57.304783 179.112827 C 64.317187 189.376523 73.76325 201.188912 84.479049 201.275485 L 84.767625 201.275485 C 89.125127 201.275485 91.991651 200.169276 95.954765 198.649441 C 101.014469 196.696741 107.32467 194.2727 117.674939 194.214985 L 118.252091 194.224604 L 118.848482 194.214985 C 129.266086 194.2727 135.576287 196.696741 140.635991 198.639821 C 144.608724 200.169276 147.465629 201.265865 151.823131 201.265865 L 152.102088 201.265865 C 162.837125 201.179292 172.273569 189.376523 179.295592 179.103208 C 182.537265 174.341699 185.432647 169.281995 187.914403 164.00105 C 172.417858 155.863199 162.433119 139.741404 162.433119 121.830437 C 162.433119 106.737898 169.387807 92.963191 181.055907 84.055803 C 173.562543 77.764841 164.597441 74.167257 155.96901 74.167257 M 155.96901 67.106757 C 168.868369 67.106757 182.518027 73.772869 192.339239 85.354397 C 178.83387 91.953174 169.503237 105.785597 169.503237 121.830437 C 169.503237 139.741404 181.113622 154.920516 197.216178 160.307273 C 194.147651 168.01226 190.165298 175.688389 185.124833 183.08556 C 177.054316 194.897949 166.261564 208.210934 152.179042 208.326365 C 152.063611 208.335984 151.938561 208.335984 151.823131 208.335984 C 139.558639 208.335984 135.720575 201.362057 118.87734 201.285104 C 118.867721 201.285104 118.858102 201.285104 118.848482 201.285104 C 118.656098 201.285104 118.482953 201.294723 118.300188 201.294723 C 118.107803 201.294723 117.944277 201.285104 117.751893 201.285104 C 117.742273 201.285104 117.723035 201.285104 117.713416 201.285104 C 100.870181 201.362057 97.041736 208.335984 84.767625 208.335984 C 84.652194 208.335984 84.536764 208.326365 84.421333 208.326365 C 70.338811 208.220553 59.53644 194.897949 51.465923 183.08556 C 28.860782 149.918528 26.484837 111.056923 40.44231 90.385243 C 50.321237 75.715949 65.952452 67.106757 80.621746 67.106757 C 95.569997 67.106757 105.064156 74.157637 117.41522 74.157637 C 117.742273 74.157637 118.300188 74.157637 118.300188 74.157637 C 118.300188 74.157637 118.848482 74.157637 119.175536 74.157637 C 131.536219 74.157637 141.020759 67.106757 155.96901 67.106757 Z M 155.96901 67.106757 " transform="matrix(0.406088,0,0,0.406088,2.112,2.112)"/>
<path style="fill-rule:nonzero;fill:url(#linear2);stroke-width:10;stroke-linecap:butt;stroke-linejoin:round;stroke:rgb(80.000001%,80.000001%,80.000001%);stroke-opacity:1;stroke-miterlimit:10;" d="M 78.928765 183.489567 C 75.82176 180.421039 72.474276 176.27516 68.972884 171.157741 C 58.80538 156.228729 52.96652 138.894914 52.96652 123.590753 C 52.96652 111.172354 58.795761 99.927498 69.37689 91.933936 L 73.6382 97.570792 C 64.865481 104.198427 60.027019 113.442487 60.027019 123.590753 C 60.027019 137.509748 65.413776 153.391062 74.811744 167.175389 C 78.043798 171.917659 81.102706 175.717246 83.892277 178.458721 Z M 78.928765 183.489567 " transform="matrix(0.406088,0,0,0.406088,2.112,2.112)"/>
<path style=" stroke:none;fill-rule:nonzero;fill:url(#linear3);" d="M 62.242188 11.289062 C 61.777344 14.660156 59.796875 17.394531 58.800781 18.589844 C 56.832031 20.953125 53.875 22.707031 50.945312 23.351562 C 51.300781 20.632812 52.871094 17.964844 54.496094 16.121094 C 56.394531 13.976562 59.351562 12.175781 62.242188 11.289062 M 65.050781 7.847656 C 60.601562 8.132812 55.390625 10.785156 52.347656 14.21875 C 49.589844 17.34375 47.304688 21.988281 48.195312 26.484375 C 48.316406 26.488281 48.441406 26.488281 48.566406 26.488281 C 53.308594 26.488281 58.160156 23.839844 61.003906 20.425781 C 63.734375 17.160156 65.804688 12.546875 65.050781 7.847656 Z M 65.050781 7.847656 "/>
<path style=" stroke:none;fill-rule:nonzero;fill:url(#linear4);" d="M 65.449219 32.230469 C 68.953125 32.230469 72.59375 33.691406 75.636719 36.246094 C 70.898438 39.863281 68.074219 45.457031 68.074219 51.585938 C 68.074219 58.859375 72.128906 65.40625 78.421875 68.710938 C 77.414062 70.855469 76.238281 72.910156 74.921875 74.84375 C 72.070312 79.015625 68.238281 83.808594 63.878906 83.84375 L 63.765625 83.84375 C 61.996094 83.84375 60.835938 83.398438 59.222656 82.777344 C 57.167969 81.988281 54.605469 81.003906 50.375 80.980469 L 50.132812 80.984375 L 49.898438 80.980469 C 45.695312 81.003906 43.132812 81.988281 41.078125 82.78125 C 39.46875 83.398438 38.304688 83.847656 36.535156 83.847656 L 36.417969 83.847656 C 32.066406 83.8125 28.230469 79.015625 25.382812 74.847656 C 16.339844 61.578125 16.332031 47.207031 20.917969 40.417969 C 24.265625 35.445312 29.738281 32.234375 34.855469 32.234375 C 37.609375 32.234375 39.847656 32.917969 42.21875 33.640625 C 44.554688 34.355469 46.976562 35.09375 49.792969 35.09375 L 50.507812 35.09375 C 53.324219 35.09375 55.746094 34.355469 58.085938 33.640625 C 60.457031 32.914062 62.695312 32.230469 65.449219 32.230469 M 65.449219 29.363281 C 59.378906 29.363281 55.527344 32.226562 50.507812 32.226562 C 50.375 32.226562 50.152344 32.226562 50.152344 32.226562 C 50.152344 32.226562 49.925781 32.226562 49.792969 32.226562 C 44.777344 32.226562 40.921875 29.363281 34.851562 29.363281 C 28.894531 29.363281 22.546875 32.859375 18.535156 38.816406 C 12.867188 47.210938 13.832031 62.992188 23.011719 76.460938 C 26.289062 81.257812 30.675781 86.667969 36.394531 86.710938 C 36.441406 86.710938 36.488281 86.714844 36.535156 86.714844 C 41.519531 86.714844 43.074219 83.882812 49.914062 83.851562 C 49.917969 83.851562 49.925781 83.851562 49.929688 83.851562 C 50.007812 83.851562 50.074219 83.855469 50.152344 83.855469 C 50.226562 83.855469 50.296875 83.851562 50.375 83.851562 C 50.378906 83.851562 50.382812 83.851562 50.386719 83.851562 C 57.226562 83.882812 58.785156 86.714844 63.765625 86.714844 C 63.8125 86.714844 63.863281 86.714844 63.910156 86.710938 C 69.628906 86.664062 74.011719 81.257812 77.289062 76.460938 C 79.335938 73.457031 80.953125 70.339844 82.199219 67.210938 C 75.660156 65.023438 70.945312 58.859375 70.945312 51.585938 C 70.945312 45.070312 74.734375 39.453125 80.21875 36.773438 C 76.230469 32.070312 70.6875 29.363281 65.449219 29.363281 Z M 65.449219 29.363281 "/>
<path style=" stroke:none;fill-rule:nonzero;fill:url(#linear5);" d="M 34.164062 76.625 C 32.902344 75.378906 31.542969 73.695312 30.121094 71.617188 C 25.992188 65.554688 23.621094 58.515625 23.621094 52.300781 C 23.621094 47.257812 25.988281 42.691406 30.285156 39.445312 L 32.015625 41.734375 C 28.453125 44.425781 26.488281 48.179688 26.488281 52.300781 C 26.488281 57.953125 28.675781 64.402344 32.492188 70 C 33.804688 71.925781 35.046875 73.46875 36.179688 74.582031 Z M 34.164062 76.625 "/>
</g>
</svg>
